<svg width="32" height="65" viewBox="0 0 32 65" fill="none" xmlns="http://www.w3.org/2000/svg">
<path d="M28.047 62.3468L22.2454 56.3687C21.5851 55.8555 21.3662 54.3978 22.1375 54.0775L29.0733 51.2175C29.8446 50.9005 30.6912 52.1033 30.5833 52.9302L30.6683 61.2616L28.047 62.3468Z" fill="#DAC0B7"/>
<path d="M28.047 62.3464L22.2454 56.3683C21.5851 55.8552 21.3662 54.3974 22.1375 54.0771L29.0733 51.2172C29.8446 50.9001 30.6912 52.1029 30.5833 52.9299L30.6683 61.2613L28.047 62.3464Z" stroke="black" stroke-miterlimit="10" stroke-linecap="round" stroke-linejoin="round"/>
<path d="M30.6618 61.1113L30.6749 63.0397C30.5637 63.8503 29.9395 64.1085 29.289 63.6117L27.9457 62.239L30.6618 61.1113Z" fill="black"/>
<mask id="mask0_168563_2569" style="mask-type:luminance" maskUnits="userSpaceOnUse" x="27" y="59" width="5" height="6">
<path d="M27.3279 59.9932H31.5116V64.6377H27.3279V59.9932Z" fill="white"/>
</mask>
<g mask="url(#mask0_168563_2569)">
<path d="M30.6614 61.1114L30.6745 63.0398C30.5634 63.8504 29.9391 64.1086 29.2887 63.6118L27.9453 62.2391L30.6614 61.1114Z" stroke="black" stroke-miterlimit="10" stroke-linecap="round" stroke-linejoin="round"/>
</g>
<path d="M0.892558 5.28824C0.631078 4.66069 0.931779 3.94162 1.55606 3.68341L8.07345 0.980358C8.701 0.718878 9.41681 1.01631 9.67502 1.64713L11.9695 7.19705C12.2277 7.8246 11.9303 8.54367 11.306 8.80515L4.78534 11.5082C4.15779 11.7664 3.44526 11.469 3.18378 10.8414L0.892558 5.28824Z" fill="#EF2E68"/>
<mask id="mask1_168563_2569" style="mask-type:luminance" maskUnits="userSpaceOnUse" x="0" y="0" width="14" height="13">
<path d="M0 0H13.1034V12.2994H0V0Z" fill="white"/>
</mask>
<g mask="url(#mask1_168563_2569)">
<path d="M9.87072 3.56616L9.97531 3.82437C10.0341 3.96491 10.1322 4.06624 10.276 4.1218C10.4166 4.18064 10.5571 4.18064 10.7009 4.1218C10.8415 4.06624 10.9395 3.96491 10.9984 3.82437C11.0572 3.68056 11.0572 3.54001 10.9984 3.3962L10.8938 3.14125C10.8349 3.00071 10.7336 2.89938 10.5931 2.84055C10.4525 2.78172 10.312 2.78172 10.1682 2.84055C10.0276 2.89938 9.92628 3.00071 9.87072 3.14125C9.81189 3.2818 9.81189 3.42561 9.87072 3.56616ZM10.5048 5.10562L11.4592 7.40991C11.5279 7.58314 11.5278 7.75311 11.4559 7.92634C11.384 8.09957 11.2631 8.2205 11.0931 8.29241L4.92875 10.8484C4.7882 10.9039 4.68688 11.0053 4.62805 11.1458C4.57248 11.2896 4.57248 11.4302 4.62805 11.574C4.68688 11.7145 4.7882 11.8159 4.92875 11.8747C5.06929 11.9335 5.21311 11.9335 5.35365 11.8747L11.518 9.31872C11.9724 9.12914 12.2927 8.80556 12.4823 8.35124C12.6686 7.89692 12.6686 7.4426 12.4823 6.98501L11.5278 4.68072C11.4723 4.54017 11.371 4.43885 11.2304 4.38001C11.0866 4.32118 10.9461 4.32118 10.8055 4.38001C10.665 4.43885 10.5636 4.54017 10.5048 4.68072C10.446 4.82126 10.446 4.96508 10.5048 5.10562ZM3.90898 10.9072C3.86975 10.8778 3.8338 10.8418 3.80112 10.8026C3.70306 10.6849 3.57559 10.6196 3.42524 10.6032C3.27162 10.5902 3.13761 10.6327 3.01994 10.7307C2.90228 10.8288 2.83691 10.953 2.82383 11.1066C2.80749 11.2602 2.84998 11.3942 2.94804 11.5119C3.03302 11.6165 3.13107 11.7113 3.23893 11.793C3.35987 11.8845 3.49714 11.9204 3.6475 11.9008C3.80112 11.878 3.92205 11.8093 4.01357 11.6851C4.10835 11.5642 4.14431 11.4269 4.12143 11.2733C4.10182 11.1229 4.02991 10.9987 3.90898 10.9072ZM3.30757 9.68806L1.40531 5.0762C1.3334 4.90624 1.3334 4.73301 1.40204 4.56305C1.47394 4.38982 1.59488 4.26889 1.76484 4.19698L8.2855 1.49393C8.45873 1.42202 8.62869 1.42202 8.80192 1.49393C8.97188 1.56584 9.09282 1.68677 9.16146 1.85673L9.23336 2.02669C9.2922 2.16724 9.39025 2.26856 9.53406 2.3274C9.67461 2.38623 9.81516 2.38623 9.9557 2.3274C10.0995 2.26856 10.1976 2.16724 10.2564 2.02669C10.3152 1.88615 10.3152 1.74233 10.2564 1.60179L10.1878 1.4351C10.0015 0.977506 9.68115 0.657193 9.22356 0.46762C8.7725 0.278046 8.31818 0.278046 7.86059 0.46762L1.3432 3.17067C0.888883 3.36024 0.568569 3.68056 0.378996 4.13488C0.189423 4.59247 0.189423 5.04679 0.378996 5.50111L2.28126 10.113C2.3401 10.2535 2.44142 10.3548 2.58197 10.4137C2.72251 10.4725 2.86632 10.4725 3.00687 10.4137C3.14742 10.3548 3.24874 10.2535 3.30757 10.113C3.36641 9.97242 3.36641 9.8286 3.30757 9.68806Z" fill="black"/>
</g>
<path d="M21.9384 56.0415C21.9286 56.0284 21.8796 55.9434 21.873 55.9304L5.18079 15.5742C4.92258 14.9499 5.22001 14.2374 5.84102 13.9792L12.3094 11.2957C12.9304 11.0375 13.6397 11.335 13.8979 11.9592L30.5542 52.3971C30.5607 52.4167 30.5836 52.5638 30.5868 52.5769L29.2304 51.6159L28.9297 53.2404L27.1255 52.286L26.6221 54.1654L24.8866 53.0606L24.1904 55.1394L22.5365 54.0608L21.9384 56.0415Z" fill="#EE8F42"/>
<path d="M26.9392 45.076L27.0437 45.3342C27.1026 45.4747 27.2039 45.5761 27.3445 45.6349C27.485 45.6937 27.6255 45.6937 27.7694 45.6349C27.9099 45.5761 28.0112 45.4747 28.0701 45.3342C28.1289 45.1936 28.1289 45.0498 28.0701 44.9093L27.9622 44.6511C27.9034 44.5105 27.8053 44.4092 27.6648 44.3504C27.521 44.2915 27.3804 44.2915 27.2399 44.3504C27.0993 44.4092 26.998 44.5105 26.9392 44.6511C26.8803 44.7916 26.8803 44.9354 26.9392 45.076ZM27.5732 46.6154L30.041 52.6099L30.5541 52.3974L30.0279 52.5739C30.0214 52.5543 30.0181 52.5412 30.0148 52.5314C30.0181 52.5347 30.0181 52.5445 30.0214 52.5576C30.0246 52.5772 30.0312 52.6033 30.0344 52.6393C30.041 52.6622 30.0442 52.6785 30.0442 52.685L30.5868 52.5772L30.9071 52.1229L29.5507 51.1619C29.4232 51.0737 29.2859 51.041 29.1356 51.0671C28.9852 51.0933 28.8643 51.1685 28.7761 51.2959C28.7303 51.3613 28.7009 51.4365 28.6845 51.5149L28.3871 53.1394L28.9297 53.2407L29.1912 52.7504L27.3869 51.7927C27.2497 51.7208 27.1091 51.7078 26.962 51.7535C26.8182 51.7993 26.7071 51.8908 26.6385 52.0248C26.6188 52.0608 26.6025 52.1 26.5927 52.1392L26.0861 54.0219L26.6221 54.1657L26.9195 53.695L25.1807 52.5903C25.0532 52.5085 24.9127 52.4857 24.7656 52.5184C24.6153 52.551 24.5009 52.6328 24.4159 52.7635C24.393 52.7994 24.3734 52.8419 24.3603 52.8844L23.6641 54.9632L24.1903 55.1397L24.4911 54.6756L22.8372 53.597C22.7097 53.512 22.5692 53.4858 22.4221 53.5185C22.2717 53.5512 22.1541 53.6296 22.0724 53.7604C22.0429 53.8029 22.0201 53.8519 22.0037 53.9009L21.4056 55.8816L21.9384 56.0418L22.4123 55.7574C22.3992 55.7378 22.3894 55.7215 22.3829 55.7051C22.3763 55.6953 22.3698 55.6855 22.3665 55.6823C22.3731 55.6953 22.3829 55.7084 22.3894 55.7248L5.69391 15.362C5.622 15.1921 5.622 15.0221 5.69391 14.8522C5.76255 14.6822 5.88348 14.5645 6.05344 14.4926L12.5185 11.8092C12.6885 11.7405 12.8585 11.7405 13.0252 11.8092C13.1951 11.8811 13.316 12.002 13.388 12.172L26.3051 43.5365C26.3639 43.6771 26.462 43.7784 26.6025 43.8372C26.7463 43.896 26.8869 43.896 27.0274 43.8372C27.1712 43.7784 27.2693 43.6803 27.3281 43.5365C27.3869 43.396 27.3869 43.2554 27.3281 43.1116L14.411 11.7471C14.2247 11.2928 13.9044 10.9724 13.4533 10.7861C12.999 10.5966 12.548 10.5966 12.0969 10.7829L5.62854 13.4663C5.17748 13.6559 4.85717 13.9762 4.67087 14.4273C4.48129 14.8816 4.48129 15.3326 4.67087 15.787L21.3598 56.1366C21.3729 56.1758 21.4089 56.2379 21.4612 56.3294C21.5363 56.4504 21.6409 56.5321 21.7749 56.5746C21.922 56.6171 22.0626 56.604 22.1998 56.5321C22.3338 56.4602 22.4221 56.349 22.4678 56.202L23.066 54.2245L22.5365 54.0611L22.2325 54.5285L23.8864 55.6071C23.9256 55.63 23.9681 55.6528 24.0138 55.6659C24.1577 55.7149 24.2982 55.7051 24.4355 55.6365C24.5728 55.5679 24.6675 55.4633 24.7166 55.3162L25.4095 53.2374L24.8865 53.0609L24.5891 53.5283L26.3247 54.6331C26.3737 54.6658 26.4227 54.6854 26.4783 54.7017C26.6254 54.7409 26.7659 54.7213 26.8999 54.6461C27.0307 54.571 27.1189 54.4566 27.1581 54.3095L27.6615 52.4301L27.1255 52.2863L26.8673 52.7766L28.6715 53.731C28.7205 53.7571 28.7761 53.7767 28.8316 53.7865C28.982 53.8159 29.1192 53.7833 29.2435 53.6983C29.3709 53.61 29.4494 53.4924 29.4755 53.342L29.7762 51.7176L29.2304 51.6162L28.9101 52.0706L30.2665 53.0315C30.3972 53.123 30.541 53.1524 30.6947 53.1198C30.845 53.0903 30.9627 53.0119 31.0477 52.8844C31.1326 52.757 31.1621 52.6197 31.1326 52.4693V52.4661C31.1294 52.4628 31.1294 52.4562 31.1261 52.4464C31.1065 52.332 31.0902 52.2569 31.0803 52.2242C31.0771 52.2111 31.0705 52.198 31.0673 52.1882L28.5963 46.1938C28.5407 46.05 28.4394 45.9519 28.2989 45.8931C28.1583 45.8343 28.0145 45.831 27.8739 45.8898C27.7334 45.9487 27.6321 46.05 27.5732 46.1905C27.5144 46.3344 27.5144 46.4749 27.5732 46.6154Z" fill="black"/>
<path d="M5.32762 16.0291C5.32108 16.0127 5.31128 15.9964 5.30474 15.9768L3.01025 10.4236L11.796 6.78247L14.0905 12.3357C14.0937 12.352 14.1003 12.3716 14.1068 12.3879L5.32762 16.0291Z" fill="#918F8F"/>
<path d="M5.32762 16.0288C5.32109 16.0125 5.31128 15.9961 5.30474 15.9765L3.01025 10.4233L11.796 6.78221L14.0905 12.3354C14.0937 12.3517 14.1003 12.3714 14.1068 12.3877L5.32762 16.0288Z" stroke="black" stroke-miterlimit="10" stroke-linecap="round" stroke-linejoin="round"/>
<path d="M9.56055 19.075L21.9122 49.253L9.56055 19.075Z" fill="black"/>
<path d="M9.56055 19.075C9.56055 19.075 9.61611 19.1893 9.72724 19.4018C9.8351 19.6175 9.99853 19.928 10.1946 20.3301C10.5869 21.1308 11.1458 22.2813 11.7831 23.6705C12.1067 24.3634 12.4564 25.1151 12.8062 25.9159C13.1657 26.7167 13.5481 27.56 13.9175 28.4359C14.2933 29.3184 14.6954 30.2173 15.0778 31.1455C15.4635 32.0738 15.8589 33.0118 16.2479 33.9532C16.6303 34.8978 17.0095 35.8456 17.3853 36.7739C17.7645 37.7054 18.1077 38.6304 18.4574 39.5194C18.8071 40.4084 19.1242 41.2746 19.4281 42.095C19.7387 42.9154 20.0197 43.6966 20.278 44.4156C20.7944 45.857 21.2029 47.0664 21.484 47.9129C21.7651 48.7627 21.9122 49.253 21.9122 49.253C21.9122 49.253 21.6769 48.7987 21.2814 48.0012C20.8826 47.1971 20.327 46.0499 19.6864 44.6575C19.366 43.9646 19.0196 43.2128 18.6633 42.4088C18.3071 41.6113 17.9279 40.768 17.552 39.8888C17.1794 39.0095 16.7741 38.1107 16.3917 37.1824C16.006 36.2542 15.6171 35.3161 15.2249 34.3748C14.8424 33.4269 14.4633 32.4823 14.0907 31.5541C13.7115 30.6226 13.3651 29.6976 13.0186 28.8085C12.6689 27.9195 12.3486 27.0501 12.0446 26.2297C11.7341 25.4093 11.4563 24.6314 11.1981 23.9091C10.6784 22.4709 10.2731 21.2616 9.98872 20.415C9.84817 19.9901 9.74358 19.6535 9.67168 19.4247C9.59977 19.1959 9.56055 19.075 9.56055 19.075Z" fill="black"/>
<path d="M12.8484 17.2869L25.2001 47.4649L12.8484 17.2869Z" fill="black"/>
<path d="M12.8484 17.2869C12.8484 17.2869 12.9072 17.4013 13.0151 17.6137C13.1229 17.8294 13.2864 18.1399 13.4792 18.542C13.8747 19.3428 14.4336 20.4933 15.071 21.8791C15.3913 22.5753 15.741 23.3271 16.0973 24.1311C16.4503 24.9286 16.8327 25.7719 17.2053 26.6478C17.5812 27.5303 17.9865 28.4292 18.3689 29.3574C18.7546 30.2824 19.1435 31.2237 19.5357 32.1651C19.9182 33.1097 20.2973 34.0543 20.6699 34.9858C21.0491 35.914 21.3922 36.8423 21.742 37.7281C22.0917 38.6204 22.412 39.4865 22.7193 40.3069C23.0298 41.1273 23.3076 41.9085 23.5658 42.6275C24.0855 44.0657 24.4908 45.2783 24.7719 46.1248C25.0497 46.9746 25.2001 47.4649 25.2001 47.4649C25.2001 47.4649 24.9614 47.0106 24.566 46.2098C24.1737 45.409 23.6148 44.2585 22.9742 42.8694C22.6539 42.1765 22.3042 41.4247 21.9544 40.624C21.5949 39.8232 21.2157 38.9799 20.8399 38.1007C20.464 37.2214 20.062 36.3226 19.6828 35.3944C19.2971 34.4661 18.9017 33.528 18.5127 32.5867C18.1336 31.6388 17.7511 30.6943 17.3785 29.766C16.9994 28.8345 16.6562 27.9095 16.3065 27.0205C15.9567 26.1282 15.6397 25.262 15.3324 24.4449C15.0219 23.6245 14.7441 22.84 14.4859 22.121C13.9662 20.6828 13.5577 19.4735 13.2766 18.627C13.1327 18.202 13.0347 17.8654 12.9595 17.6366C12.8876 17.4078 12.8484 17.2869 12.8484 17.2869Z" fill="black"/>
</svg>
