<svg width="190" height="82" viewBox="0 0 190 82" fill="none" xmlns="http://www.w3.org/2000/svg">
<mask id="mask0_123_1690" style="mask-type:luminance" maskUnits="userSpaceOnUse" x="0" y="0" width="190" height="83">
<path d="M189.102 0H0V82.0001H189.102V0Z" fill="white"/>
</mask>
<g mask="url(#mask0_123_1690)">
<path d="M19.5611 56.3639H32.6089C32.6089 57.3248 32.5436 58.24 32.4128 59.1094C32.0206 61.3418 30.5106 62.4564 27.8892 62.4564H10.7754C9.55295 62.4564 8.56913 62.0772 7.82064 61.3189C7.07869 60.5541 6.70935 59.4886 6.70935 58.1289V17.7433L7.16694 17.3511H9.79481C11.233 17.3511 12.2462 17.7041 12.8411 18.4101C13.4327 19.1095 13.7301 20.2404 13.7301 21.8093V56.6254C15.5147 56.4521 17.4594 56.3639 19.5611 56.3639Z" fill="white"/>
<path d="M43.8187 35.6415V62.3909C42.9819 62.5642 41.851 62.6524 40.4325 62.6524C39.0205 62.6524 37.8962 62.5642 37.0594 62.3909V38.4002C37.0594 37.1712 36.8404 36.2952 36.4057 35.7723C35.9677 35.2493 35.2291 34.9878 34.1831 34.9878H33.4641C33.2353 34.0302 33.1241 33.2228 33.1241 32.5691C33.1241 31.9089 33.2353 31.0754 33.4641 30.072C34.9022 29.8988 36.275 29.8105 37.5824 29.8105H38.5106C40.1645 29.8105 41.4654 30.34 42.4067 31.3925C43.348 32.4384 43.8187 33.8569 43.8187 35.6415ZM35.6213 23.9142C35.2291 23.1297 35.0329 22.1688 35.0329 21.0248C35.0329 19.2402 35.3598 18.1812 36.0135 17.8478C36.6672 17.5177 37.7589 17.3314 39.2951 17.2856C41.0372 17.3314 42.1485 17.5537 42.6289 17.9524C43.1159 18.3446 43.3807 19.3709 43.4265 21.0248C43.3807 22.6035 43.1159 23.6102 42.6289 24.0449C42.1485 24.4829 41.0372 24.7215 39.2951 24.764C37.5856 24.764 36.36 24.4829 35.6213 23.9142Z" fill="white"/>
<path d="M76.3998 40.165V55.4485C76.3998 58.0209 76.7691 60.0081 77.5111 61.4103C76.3671 62.3712 75.0335 62.8484 73.5104 62.8484C72.0265 62.8484 71.0133 62.4889 70.4642 61.7764C69.9151 61.054 69.6405 59.9689 69.6405 58.5209V41.8777C69.6405 39.6029 69.3431 37.9882 68.7515 37.0273C68.1664 36.0598 67.1499 35.5761 65.7052 35.5761C64.2671 35.5761 62.793 35.9389 61.2862 36.6612C59.7762 37.3868 58.4557 38.3804 57.3248 39.6421V62.3908C56.5731 62.5641 55.4585 62.6523 53.9779 62.6523C53.2784 62.6523 52.6443 62.6294 52.0691 62.5869C51.5003 62.5412 51.0003 62.4758 50.5656 62.3908V30.1373L50.9578 29.7451H53.5203C55.8736 29.7451 57.1189 31.1015 57.2594 33.8111C60.4495 30.8825 63.9206 29.4182 67.6794 29.4182C70.608 29.4182 72.7913 30.3922 74.2295 32.3337C75.6742 34.2785 76.3998 36.89 76.3998 40.165Z" fill="white"/>
<path d="M102.285 32.5693C103.252 31.0364 104.759 30.0297 106.808 29.5492C107.331 29.8989 107.845 30.4252 108.351 31.1312C108.854 31.8306 109.175 32.4614 109.306 33.0269C108.077 34.2035 107.462 36.279 107.462 39.2501V58.6519C107.462 62.0185 107.188 64.8555 106.638 67.1762C106.096 69.4935 105.256 71.3631 104.115 72.7849C102.981 74.2034 101.54 75.2298 99.7877 75.8573C98.0423 76.4914 95.9472 76.8117 93.4991 76.8117C89.6096 76.8117 85.8312 76.0926 82.1639 74.6545C82.2064 72.5529 82.7947 70.85 83.9289 69.5426C86.681 70.8925 89.6553 71.569 92.8454 71.569C95.9472 71.569 98.0652 70.7715 99.1993 69.1765C100.34 67.5815 100.912 65.3393 100.912 62.4565V59.4364C98.3299 61.7995 95.2935 62.9794 91.7994 62.9794C88.3479 62.9794 85.6481 61.4726 83.7066 58.4558C81.7619 55.4423 80.7911 51.288 80.7911 45.9963C80.7911 43.339 81.118 40.9726 81.7717 38.8971C82.4254 36.8151 83.3406 35.0534 84.5172 33.6152C85.7004 32.1705 87.047 31.0658 88.5571 30.3075C90.0639 29.5427 91.6687 29.157 93.3683 29.157C96.8624 29.157 99.8334 30.2944 102.285 32.5693ZM100.912 53.4746V37.5505C98.7221 35.5829 96.5845 34.5958 94.4927 34.5958C92.391 34.5958 90.7274 35.5829 89.4984 37.5505C88.276 39.5116 87.6681 42.4206 87.6681 46.2708C87.6681 50.0721 88.2106 52.8699 89.3023 54.6644C90.4005 56.4522 91.8191 57.3445 93.5644 57.3445C96.274 57.3445 98.7221 56.0567 100.912 53.4746Z" fill="white"/>
<path d="M124.636 56.887L132.376 30.0069C133.203 29.8337 134.174 29.7454 135.292 29.7454C136.406 29.7454 137.423 29.9219 138.338 30.2684L138.534 30.5299C135.256 41.548 131.893 52.1673 128.441 62.3912C127.176 62.6069 125.689 62.7181 123.983 62.7181C122.283 62.7181 121.093 62.4762 120.414 61.999C119.734 61.5218 119.132 60.5151 118.609 58.9789L109.562 30.5299C111.007 29.8762 112.298 29.5493 113.432 29.5493C115.4 29.5493 116.625 30.5135 117.106 32.4387L121.499 46.8593C122.326 49.4839 123.175 52.6511 124.048 56.3641C124.133 56.7138 124.329 56.887 124.636 56.887Z" fill="white"/>
<path d="M163.775 51.5134L159.839 51.5788H150.858L147.053 51.5134L143.588 62.4564C142.837 62.6296 141.853 62.7179 140.634 62.7179C139.411 62.7179 138.254 62.5642 137.156 62.2603L136.96 61.9334L151.773 17.6126C152.695 17.4393 154.028 17.3511 155.773 17.3511C157.525 17.3511 158.836 17.4393 159.709 17.6126L174.391 61.9334C173.476 62.5414 172.292 62.8486 170.848 62.8486C169.41 62.8486 168.383 62.5871 167.775 62.0642C167.164 61.5412 166.641 60.5803 166.206 59.1748L163.775 51.5134ZM148.831 45.8655L152.178 45.8001H158.728C160.523 45.8459 161.618 45.8655 162.01 45.8655L158.99 36.3607C157.453 31.471 156.296 27.5194 155.512 24.5026H155.185C154.662 26.9082 153.812 30.0786 152.636 34.0073L148.831 45.8655Z" fill="white"/>
<path d="M178.52 62.391V17.6126C179.399 17.4393 180.55 17.3511 181.971 17.3511C183.39 17.3511 184.56 17.4393 185.475 17.6126V62.391C184.56 62.5642 183.39 62.6525 181.971 62.6525C180.55 62.6525 179.399 62.5642 178.52 62.391Z" fill="white"/>
</g>
</svg>
