<svg width="79" height="28" viewBox="0 0 79 28" fill="none" xmlns="http://www.w3.org/2000/svg">
<path d="M76.9861 21.9464L74.9859 19.9051C74.7582 19.7299 74.6827 19.2321 74.9487 19.1227L77.34 18.1462C77.6059 18.0379 77.8978 18.4486 77.8606 18.731L77.8899 21.5759L76.9861 21.9464Z" fill="#DAC0B7"/>
<path d="M76.9861 21.9463L74.9859 19.905C74.7582 19.7298 74.6827 19.232 74.9487 19.1226L77.34 18.1461C77.6059 18.0378 77.8978 18.4485 77.8606 18.7309L77.8899 21.5758L76.9861 21.9463Z" stroke="black" stroke-miterlimit="10" stroke-linecap="round" stroke-linejoin="round"/>
<path d="M77.8876 21.5247L77.8921 22.1831C77.8538 22.4599 77.6386 22.5481 77.4143 22.3785L76.9512 21.9097L77.8876 21.5247Z" fill="black"/>
<mask id="mask0_158_1501" style="mask-type:luminance" maskUnits="userSpaceOnUse" x="76" y="21" width="3" height="2">
<path d="M76.7383 21.1428H78.1807V22.7288H76.7383V21.1428Z" fill="white"/>
</mask>
<g mask="url(#mask0_158_1501)">
<path d="M77.8876 21.5247L77.8921 22.1832C77.8538 22.46 77.6386 22.5481 77.4143 22.3785L76.9512 21.9097L77.8876 21.5247Z" stroke="black" stroke-miterlimit="10" stroke-linecap="round" stroke-linejoin="round"/>
</g>
<path d="M67.624 2.46309C67.5338 2.2488 67.6375 2.00327 67.8528 1.9151L70.0998 0.992108C70.3162 0.902822 70.563 1.00438 70.652 1.21979L71.4431 3.11488C71.5321 3.32916 71.4296 3.5747 71.2143 3.66398L68.9662 4.58697C68.7498 4.67514 68.5041 4.57358 68.414 4.3593L67.624 2.46309Z" fill="#EF2E68"/>
<mask id="mask1_158_1501" style="mask-type:luminance" maskUnits="userSpaceOnUse" x="67" y="0" width="5" height="5">
<path d="M67.3162 0.657227H71.834V4.857H67.3162V0.657227Z" fill="white"/>
</mask>
<g mask="url(#mask1_158_1501)">
<path d="M70.7195 1.8749L70.7556 1.96307C70.7759 2.01106 70.8097 2.04565 70.8593 2.06463C70.9077 2.08472 70.9562 2.08472 71.0058 2.06463C71.0542 2.04565 71.088 2.01106 71.1083 1.96307C71.1286 1.91396 71.1286 1.86597 71.1083 1.81686L71.0723 1.72981C71.052 1.68182 71.017 1.64722 70.9686 1.62713C70.9201 1.60704 70.8717 1.60704 70.8221 1.62713C70.7736 1.64722 70.7387 1.68182 70.7195 1.72981C70.6992 1.7778 70.6992 1.8269 70.7195 1.8749ZM70.9381 2.40057L71.2672 3.1874C71.2909 3.24655 71.2909 3.30458 71.2661 3.36373C71.2413 3.42289 71.1996 3.46418 71.141 3.48873L69.0156 4.3615C68.9672 4.38048 68.9322 4.41507 68.912 4.46306C68.8928 4.51217 68.8928 4.56016 68.912 4.60927C68.9322 4.65726 68.9672 4.69186 69.0156 4.71195C69.0641 4.73204 69.1137 4.73204 69.1621 4.71195L71.2875 3.83918C71.4441 3.77445 71.5546 3.66396 71.6199 3.50882C71.6842 3.35369 71.6842 3.19856 71.6199 3.04231L71.2909 2.25548C71.2717 2.20748 71.2368 2.17289 71.1883 2.1528C71.1387 2.13271 71.0903 2.13271 71.0418 2.1528C70.9934 2.17289 70.9584 2.20748 70.9381 2.25548C70.9179 2.30347 70.9179 2.35257 70.9381 2.40057ZM68.664 4.38159C68.6505 4.37155 68.6381 4.35927 68.6268 4.34588C68.593 4.3057 68.5491 4.28338 68.4973 4.2778C68.4443 4.27333 68.3981 4.28784 68.3575 4.32132C68.3169 4.35481 68.2944 4.39722 68.2899 4.44967C68.2843 4.50213 68.2989 4.54789 68.3327 4.58806C68.362 4.62378 68.3958 4.65615 68.433 4.68405C68.4747 4.7153 68.522 4.72757 68.5739 4.72088C68.6268 4.71306 68.6685 4.68963 68.7001 4.64722C68.7328 4.60592 68.7452 4.55905 68.7373 4.50659C68.7305 4.45525 68.7057 4.41284 68.664 4.38159ZM68.4567 3.9653L67.8008 2.39052C67.776 2.33248 67.776 2.27333 67.7997 2.2153C67.8245 2.15615 67.8662 2.11485 67.9248 2.0903L70.173 1.16731C70.2327 1.14275 70.2913 1.14275 70.351 1.16731C70.4096 1.19186 70.4513 1.23315 70.475 1.29119L70.4998 1.34923C70.5201 1.39722 70.5539 1.43182 70.6035 1.4519C70.6519 1.47199 70.7004 1.47199 70.7488 1.4519C70.7984 1.43182 70.8322 1.39722 70.8525 1.34923C70.8728 1.30123 70.8728 1.25213 70.8525 1.20414L70.8288 1.14722C70.7646 0.990967 70.6542 0.881592 70.4964 0.81686C70.3409 0.752127 70.1842 0.752127 70.0265 0.81686L67.7794 1.73985C67.6228 1.80458 67.5123 1.91396 67.447 2.06909C67.3816 2.22534 67.3816 2.38048 67.447 2.53561L68.1028 4.11039C68.1231 4.15838 68.1581 4.19298 68.2065 4.21306C68.255 4.23315 68.3046 4.23315 68.353 4.21306C68.4015 4.19298 68.4364 4.15838 68.4567 4.11039C68.477 4.0624 68.477 4.01329 68.4567 3.9653Z" fill="black"/>
</g>
<path d="M74.88 19.7935C74.8766 19.789 74.8597 19.76 74.8575 19.7555L69.1023 5.97539C69.0133 5.76222 69.1158 5.51892 69.3299 5.43075L71.5601 4.51445C71.7742 4.42628 72.0188 4.52785 72.1078 4.74102L77.8505 18.5491C77.8528 18.5557 77.8607 18.606 77.8618 18.6104L77.3941 18.2823L77.2905 18.837L76.6684 18.5111L76.4949 19.1528L75.8965 18.7756L75.6564 19.4854L75.0862 19.1171L74.88 19.7935Z" fill="#EE8F42"/>
<path d="M76.6044 16.0491L76.6404 16.1373C76.6607 16.1853 76.6956 16.2199 76.7441 16.24C76.7926 16.2601 76.841 16.2601 76.8906 16.24C76.9391 16.2199 76.974 16.1853 76.9943 16.1373C77.0146 16.0893 77.0146 16.0402 76.9943 15.9922L76.9571 15.9041C76.9368 15.8561 76.903 15.8215 76.8545 15.8014C76.805 15.7813 76.7565 15.7813 76.708 15.8014C76.6596 15.8215 76.6247 15.8561 76.6044 15.9041C76.5841 15.952 76.5841 16.0012 76.6044 16.0491ZM76.823 16.5748L77.6738 18.6217L77.8507 18.5491L77.6693 18.6094C77.667 18.6027 77.6659 18.5983 77.6648 18.5949C77.6659 18.596 77.6659 18.5994 77.667 18.6038C77.6682 18.6105 77.6704 18.6195 77.6716 18.6317C77.6738 18.6395 77.6749 18.6451 77.6749 18.6474L77.862 18.6105L77.9724 18.4554L77.5048 18.1273C77.4608 18.0971 77.4135 18.086 77.3617 18.0949C77.3098 18.1038 77.2681 18.1295 77.2377 18.173C77.2219 18.1953 77.2118 18.221 77.2061 18.2478L77.1036 18.8025L77.2907 18.8371L77.3808 18.6697L76.7588 18.3427C76.7114 18.3181 76.663 18.3137 76.6123 18.3293C76.5627 18.3449 76.5244 18.3762 76.5007 18.4219C76.4939 18.4342 76.4883 18.4476 76.4849 18.461L76.3102 19.1038L76.4951 19.1529L76.5976 18.9922L75.9981 18.615C75.9541 18.5871 75.9057 18.5793 75.855 18.5904C75.8031 18.6016 75.7637 18.6295 75.7344 18.6741C75.7265 18.6864 75.7197 18.7009 75.7152 18.7154L75.4752 19.4253L75.6566 19.4855L75.7603 19.327L75.1901 18.9587C75.1461 18.9297 75.0977 18.9208 75.047 18.932C74.9951 18.9431 74.9546 18.9699 74.9264 19.0145C74.9163 19.0291 74.9084 19.0458 74.9027 19.0625L74.6965 19.7389L74.8802 19.7936L75.0436 19.6965C75.0391 19.6898 75.0357 19.6842 75.0335 19.6786C75.0312 19.6753 75.0289 19.6719 75.0278 19.6708C75.0301 19.6753 75.0335 19.6797 75.0357 19.6853L69.2794 5.90294C69.2546 5.8449 69.2546 5.78687 69.2794 5.72883C69.3031 5.67079 69.3448 5.63062 69.4034 5.60606L71.6324 4.68977C71.691 4.66633 71.7496 4.66633 71.8071 4.68977C71.8657 4.71432 71.9074 4.75562 71.9322 4.81365L76.3857 15.5235C76.406 15.5715 76.4398 15.6061 76.4883 15.6262C76.5379 15.6462 76.5863 15.6462 76.6348 15.6262C76.6844 15.6061 76.7182 15.5726 76.7385 15.5235C76.7588 15.4755 76.7588 15.4275 76.7385 15.3784L72.2849 4.66856C72.2207 4.51343 72.1102 4.40405 71.9547 4.34044C71.7981 4.27571 71.6426 4.27571 71.4871 4.33932L69.2569 5.25562C69.1014 5.32035 68.9909 5.42972 68.9267 5.58374C68.8613 5.73888 68.8613 5.89289 68.9267 6.04803L74.6807 19.8259C74.6852 19.8393 74.6976 19.8605 74.7157 19.8918C74.7416 19.9331 74.7776 19.961 74.8238 19.9755C74.8746 19.99 74.923 19.9855 74.9703 19.961C75.0165 19.9364 75.047 19.8985 75.0628 19.8483L75.269 19.173L75.0864 19.1172L74.9816 19.2768L75.5518 19.6451C75.5654 19.6529 75.58 19.6608 75.5958 19.6652C75.6454 19.682 75.6938 19.6786 75.7412 19.6552C75.7885 19.6317 75.8212 19.596 75.8381 19.5458L76.077 18.836L75.8967 18.7757L75.7941 18.9353L76.3925 19.3125C76.4094 19.3237 76.4263 19.3304 76.4455 19.336C76.4962 19.3494 76.5446 19.3427 76.5908 19.317C76.6359 19.2913 76.6663 19.2523 76.6799 19.202L76.8534 18.5603L76.6686 18.5112L76.5796 18.6786L77.2016 19.0045C77.2185 19.0134 77.2377 19.0201 77.2569 19.0235C77.3087 19.0335 77.356 19.0224 77.3988 18.9933C77.4428 18.9632 77.4698 18.923 77.4789 18.8717L77.5825 18.317L77.3943 18.2824L77.2839 18.4375L77.7516 18.7657C77.7966 18.7969 77.8462 18.807 77.8992 18.7958C77.951 18.7858 77.9916 18.759 78.0209 18.7154C78.0502 18.6719 78.0603 18.625 78.0502 18.5737V18.5726C78.0491 18.5715 78.0491 18.5692 78.0479 18.5659C78.0412 18.5268 78.0355 18.5012 78.0322 18.49C78.031 18.4855 78.0288 18.4811 78.0277 18.4777L77.1757 16.4308C77.1566 16.3817 77.1216 16.3483 77.0732 16.3282C77.0247 16.3081 76.9751 16.307 76.9267 16.327C76.8782 16.3471 76.8433 16.3817 76.823 16.4297C76.8027 16.4788 76.8027 16.5268 76.823 16.5748Z" fill="black"/>
<path d="M69.153 6.13051C69.1507 6.12493 69.1474 6.11935 69.1451 6.11265L68.354 4.21645L71.3831 2.97314L72.1742 4.86935C72.1754 4.87493 72.1776 4.88163 72.1799 4.88721L69.153 6.13051Z" fill="#918F8F"/>
<path d="M69.153 6.13062C69.1507 6.12503 69.1474 6.11945 69.1451 6.11276L68.354 4.21655L71.3831 2.97325L72.1742 4.86945C72.1754 4.87503 72.1776 4.88173 72.1799 4.88731L69.153 6.13062Z" stroke="black" stroke-miterlimit="10" stroke-linecap="round" stroke-linejoin="round"/>
<path d="M70.6125 7.17065L74.8712 17.4753L70.6125 7.17065Z" fill="black"/>
<path d="M70.6125 7.17065C70.6125 7.17065 70.6317 7.20972 70.67 7.28226C70.7072 7.35592 70.7636 7.46195 70.8312 7.59923C70.9664 7.87266 71.1591 8.26552 71.3788 8.73985C71.4904 8.97646 71.611 9.23315 71.7316 9.50659C71.8555 9.78003 71.9874 10.068 72.1147 10.3671C72.2443 10.6684 72.3829 10.9753 72.5148 11.2923C72.6478 11.6093 72.7841 11.9296 72.9182 12.251C73.0501 12.5736 73.1808 12.8972 73.3104 13.2142C73.4411 13.5323 73.5594 13.8481 73.68 14.1517C73.8006 14.4553 73.9099 14.751 74.0147 15.0311C74.1218 15.3113 74.2187 15.578 74.3077 15.8236C74.4858 16.3157 74.6266 16.7287 74.7235 17.0178C74.8204 17.3079 74.8712 17.4753 74.8712 17.4753C74.8712 17.4753 74.79 17.3202 74.6537 17.0479C74.5162 16.7733 74.3246 16.3816 74.1037 15.9061C73.9933 15.6695 73.8738 15.4128 73.751 15.1383C73.6282 14.866 73.4974 14.578 73.3679 14.2778C73.2394 13.9776 73.0996 13.6707 72.9678 13.3537C72.8348 13.0367 72.7007 12.7164 72.5655 12.395C72.4336 12.0713 72.3029 11.7488 72.1745 11.4318C72.0437 11.1137 71.9243 10.7979 71.8048 10.4943C71.6842 10.1907 71.5738 9.89387 71.469 9.61373C71.3619 9.3336 71.2662 9.06798 71.1771 8.82132C70.998 8.33025 70.8582 7.91731 70.7602 7.62824C70.7117 7.48315 70.6757 7.3682 70.6509 7.29007C70.6261 7.21195 70.6125 7.17065 70.6125 7.17065Z" fill="black"/>
<path d="M71.7461 6.56006L76.0047 16.8647L71.7461 6.56006Z" fill="black"/>
<path d="M71.7461 6.56006C71.7461 6.56006 71.7664 6.59912 71.8036 6.67167C71.8408 6.74533 71.8971 6.85135 71.9636 6.98863C72.0999 7.26207 72.2926 7.65492 72.5124 8.12814C72.6228 8.36586 72.7434 8.62256 72.8662 8.89711C72.988 9.16943 73.1198 9.45738 73.2483 9.75649C73.3779 10.0578 73.5176 10.3647 73.6495 10.6817C73.7824 10.9976 73.9165 11.319 74.0518 11.6404C74.1836 11.963 74.3143 12.2855 74.4428 12.6036C74.5735 12.9205 74.6918 13.2375 74.8124 13.54C74.933 13.8447 75.0434 14.1404 75.1494 14.4205C75.2564 14.7007 75.3522 14.9674 75.4412 15.213C75.6204 15.704 75.7602 16.1181 75.8571 16.4072C75.9529 16.6973 76.0047 16.8647 76.0047 16.8647C76.0047 16.8647 75.9224 16.7096 75.7861 16.4362C75.6508 16.1627 75.4581 15.7699 75.2373 15.2956C75.1268 15.0589 75.0063 14.8022 74.8857 14.5288C74.7617 14.2554 74.631 13.9674 74.5014 13.6672C74.3718 13.367 74.2332 13.0601 74.1025 12.7431C73.9695 12.4261 73.8331 12.1058 73.699 11.7844C73.5683 11.4607 73.4365 11.1382 73.308 10.8212C73.1773 10.5031 73.0589 10.1873 72.9384 9.88372C72.8178 9.57903 72.7085 9.28327 72.6025 9.00426C72.4955 8.72412 72.3997 8.45626 72.3107 8.21073C72.1315 7.71966 71.9906 7.30671 71.8937 7.01765C71.8441 6.87256 71.8103 6.7576 71.7844 6.67948C71.7596 6.60135 71.7461 6.56006 71.7461 6.56006Z" fill="black"/>
<mask id="mask2_158_1501" style="mask-type:luminance" maskUnits="userSpaceOnUse" x="75" y="3" width="5" height="4">
<path d="M75.2959 3.14282H79.0001V6.57139H75.2959V3.14282Z" fill="white"/>
</mask>
<g mask="url(#mask2_158_1501)">
<path d="M78.8107 4.93624C77.3897 5.05343 77.2939 5.14941 77.1756 6.56013C77.0572 5.14941 76.9614 5.05343 75.5404 4.93624C76.9614 4.81906 77.0572 4.72419 77.1756 3.31348C77.2939 4.72419 77.3897 4.81906 78.8107 4.93624Z" fill="#A175F0"/>
</g>
<mask id="mask3_158_1501" style="mask-type:luminance" maskUnits="userSpaceOnUse" x="75" y="2" width="5" height="5">
<path d="M75.2959 2.85693H79.0001V6.85693H75.2959V2.85693Z" fill="white"/>
</mask>
<g mask="url(#mask3_158_1501)">
<path d="M78.8107 4.9363C77.3897 5.05348 77.2939 5.14947 77.1756 6.56018C77.0572 5.14947 76.9614 5.05348 75.5404 4.9363C76.9614 4.81911 77.0572 4.72424 77.1756 3.31353C77.2939 4.72424 77.3897 4.81911 78.8107 4.9363Z" stroke="black" stroke-miterlimit="10" stroke-linecap="round" stroke-linejoin="round"/>
</g>
<path d="M72.2475 16.8647C70.8264 16.9819 70.7307 17.0768 70.6123 18.4875C70.494 17.0768 70.3993 16.9819 68.9772 16.8647C70.3993 16.7475 70.494 16.6527 70.6123 15.2419C70.7307 16.6527 70.8264 16.7475 72.2475 16.8647Z" fill="#A175F0"/>
<path d="M72.2475 16.865C70.8264 16.9822 70.7307 17.0771 70.6123 18.4878C70.494 17.0771 70.3993 16.9822 68.9772 16.865C70.3993 16.7478 70.494 16.653 70.6123 15.2423C70.7307 16.653 70.8264 16.7478 72.2475 16.865Z" stroke="black" stroke-miterlimit="10" stroke-linecap="round" stroke-linejoin="round"/>
<mask id="mask4_158_1501" style="mask-type:luminance" maskUnits="userSpaceOnUse" x="0" y="0" width="66" height="28">
<path d="M65.1987 0H0V28H65.1987V0Z" fill="white"/>
</mask>
<g mask="url(#mask4_158_1501)">
<path d="M6.74438 19.2461H11.243C11.243 19.5742 11.2205 19.8867 11.1754 20.1836C11.0402 20.9459 10.5195 21.3265 9.61575 21.3265H3.71523C3.29377 21.3265 2.95457 21.197 2.69651 20.9381C2.4407 20.6769 2.31335 20.3131 2.31335 19.8488V6.05861L2.47112 5.92468H3.37716C3.873 5.92468 4.22235 6.04522 4.42744 6.28629C4.63142 6.52513 4.73396 6.91129 4.73396 7.447V19.3354C5.34926 19.2762 6.01977 19.2461 6.74438 19.2461Z" fill="#A175F0"/>
<path d="M15.1078 12.1702V21.3041C14.8193 21.3633 14.4294 21.3934 13.9403 21.3934C13.4535 21.3934 13.0658 21.3633 12.7773 21.3041V13.1122C12.7773 12.6925 12.7018 12.3934 12.552 12.2148C12.4009 12.0363 12.1463 11.947 11.7857 11.947H11.5377C11.4588 11.62 11.4205 11.3443 11.4205 11.1211C11.4205 10.8956 11.4588 10.611 11.5377 10.2684C12.0336 10.2093 12.5069 10.1791 12.9576 10.1791H13.2777C13.8479 10.1791 14.2964 10.3599 14.621 10.7193C14.9455 11.0765 15.1078 11.5608 15.1078 12.1702ZM12.2815 8.16574C12.1463 7.89788 12.0786 7.56975 12.0786 7.17913C12.0786 6.56975 12.1913 6.20815 12.4167 6.09431C12.6421 5.98158 13.0185 5.91797 13.5481 5.90234C14.1488 5.91797 14.5319 5.99386 14.6976 6.13002C14.8655 6.26395 14.9568 6.6144 14.9726 7.17913C14.9568 7.71819 14.8655 8.06194 14.6976 8.21038C14.5319 8.35993 14.1488 8.44141 13.5481 8.45591C12.9588 8.45591 12.5362 8.35993 12.2815 8.16574Z" fill="#A175F0"/>
<path d="M26.3411 13.7148V18.9336C26.3411 19.8119 26.4684 20.4905 26.7242 20.9693C26.3298 21.2974 25.87 21.4603 25.3449 21.4603C24.8333 21.4603 24.4839 21.3376 24.2946 21.0943C24.1053 20.8476 24.0106 20.4771 24.0106 19.9827V14.2996C24.0106 13.5228 23.9081 12.9715 23.7041 12.6434C23.5024 12.313 23.1519 12.1478 22.6538 12.1478C22.158 12.1478 21.6497 12.2717 21.1302 12.5184C20.6096 12.7661 20.1543 13.1054 19.7644 13.5362V21.3041C19.5052 21.3632 19.1209 21.3934 18.6105 21.3934C18.3693 21.3934 18.1507 21.3856 17.9523 21.3711C17.7563 21.3554 17.5838 21.3331 17.434 21.3041V10.2907L17.5692 10.1568H18.4527C19.2641 10.1568 19.6934 10.6199 19.7419 11.5452C20.8417 10.5452 22.0385 10.0452 23.3345 10.0452C24.3442 10.0452 25.097 10.3778 25.5928 11.0407C26.0909 11.7048 26.3411 12.5965 26.3411 13.7148Z" fill="#A175F0"/>
<path d="M35.2658 11.121C35.5994 10.5976 36.1189 10.2538 36.8255 10.0897C37.0058 10.2092 37.1827 10.3888 37.3574 10.6299C37.5309 10.8688 37.6413 11.0842 37.6864 11.2772C37.2627 11.679 37.0508 12.3877 37.0508 13.4022V20.0272C37.0508 21.1768 36.9562 22.1455 36.7669 22.938C36.5798 23.7292 36.2902 24.3676 35.8969 24.8531C35.5058 25.3375 35.0089 25.6879 34.4048 25.9022C33.8031 26.1188 33.0807 26.2281 32.2367 26.2281C30.8956 26.2281 29.5929 25.9826 28.3285 25.4915C28.3432 24.7739 28.546 24.1924 28.9371 23.746C29.8859 24.2069 30.9114 24.4379 32.0113 24.4379C33.0807 24.4379 33.811 24.1656 34.202 23.621C34.5953 23.0763 34.7925 22.3107 34.7925 21.3263V20.2951C33.9022 21.102 32.8553 21.5049 31.6507 21.5049C30.4606 21.5049 29.5298 20.9904 28.8604 19.9603C28.1899 18.9313 27.8552 17.5127 27.8552 15.7058C27.8552 14.7984 27.9679 13.9904 28.1933 13.2817C28.4187 12.5708 28.7342 11.9692 29.1399 11.4781C29.5478 10.9848 30.0121 10.6076 30.5328 10.3487C31.0523 10.0875 31.6056 9.95581 32.1916 9.95581C33.3963 9.95581 34.4206 10.3442 35.2658 11.121ZM34.7925 18.2594V12.8219C34.0375 12.15 33.3005 11.813 32.5792 11.813C31.8546 11.813 31.281 12.15 30.8573 12.8219C30.4359 13.4915 30.2263 14.4848 30.2263 15.7996C30.2263 17.0975 30.4133 18.0529 30.7897 18.6656C31.1684 19.2761 31.6574 19.5808 32.2592 19.5808C33.1934 19.5808 34.0375 19.1411 34.7925 18.2594Z" fill="#A175F0"/>
<path d="M42.9722 19.4247L45.6408 10.2461C45.9259 10.1869 46.2606 10.1568 46.646 10.1568C47.0302 10.1568 47.3807 10.2171 47.6962 10.3354L47.7639 10.4247C46.6336 14.1869 45.474 17.8131 44.284 21.3041C43.8478 21.3778 43.3351 21.4157 42.7468 21.4157C42.1608 21.4157 41.7507 21.3331 41.5163 21.1702C41.2819 21.0073 41.0745 20.6635 40.8942 20.1389L37.7749 10.4247C38.273 10.2015 38.7181 10.0898 39.1092 10.0898C39.7876 10.0898 40.2102 10.4191 40.3758 11.0765L41.8904 16.0006C42.1755 16.8968 42.4685 17.9782 42.7694 19.2461C42.7987 19.3655 42.8663 19.4247 42.9722 19.4247Z" fill="#A175F0"/>
<path d="M56.4664 17.5897L55.1096 17.6121H52.0128L50.7011 17.5897L49.5066 21.3263C49.2474 21.3855 48.9082 21.4156 48.4878 21.4156C48.0664 21.4156 47.6674 21.3632 47.2888 21.2594L47.2212 21.1478L52.3284 6.01385C52.6462 5.95469 53.1059 5.92456 53.7077 5.92456C54.3117 5.92456 54.7636 5.95469 55.0645 6.01385L60.1266 21.1478C59.8111 21.3554 59.4031 21.4603 58.905 21.4603C58.4092 21.4603 58.0553 21.371 57.8457 21.1924C57.635 21.0138 57.4547 20.6857 57.3048 20.2058L56.4664 17.5897ZM51.3141 15.6612L52.4681 15.6388H54.7264C55.3451 15.6545 55.7226 15.6612 55.8579 15.6612L54.8166 12.4156C54.2869 10.746 53.888 9.39666 53.6176 8.36652H53.5049C53.3246 9.18795 53.0316 10.2705 52.6259 11.6121L51.3141 15.6612Z" fill="#A175F0"/>
<path d="M61.5503 21.304V6.01385C61.8534 5.95469 62.2501 5.92456 62.7403 5.92456C63.2294 5.92456 63.6328 5.95469 63.9484 6.01385V21.304C63.6328 21.3632 63.2294 21.3933 62.7403 21.3933C62.2501 21.3933 61.8534 21.3632 61.5503 21.304Z" fill="#A175F0"/>
</g>
</svg>
