<svg width="100%" height="100%" viewBox="0 0 40 40" fill="none" xmlns="http://www.w3.org/2000/svg">
<rect width="100%" height="100%" rx="12" fill="#F7F7F7"/>
<path d="M25.4 15.2H17C16.6817 15.2 16.3765 15.3264 16.1514 15.5515C15.9264 15.7765 15.8 16.0817 15.8 16.4C15.8 16.7183 15.9264 17.0235 16.1514 17.2485C16.3765 17.4736 16.6817 17.6 17 17.6H25.4V25.4C25.4 25.5591 25.3368 25.7117 25.2242 25.8243C25.1117 25.9368 24.9591 26 24.8 26H17C16.3635 26 15.753 25.7471 15.3029 25.2971C14.8528 24.847 14.6 24.2365 14.6 23.6V16.4C14.6 15.7635 14.8528 15.153 15.3029 14.7029C15.753 14.2529 16.3635 14 17 14H24.8C24.9591 14 25.1117 14.0632 25.2242 14.1757C25.3368 14.2883 25.4 14.4409 25.4 14.6V15.2ZM24.8 17H17C16.8408 17 16.6882 16.9368 16.5757 16.8243C16.4632 16.7117 16.4 16.5591 16.4 16.4C16.4 16.2409 16.4632 16.0883 16.5757 15.9757C16.6882 15.8632 16.8408 15.8 17 15.8H24.8V17Z" fill="#5C5C5C"/>
</svg>
