<svg width="100%" height="100%" viewBox="0 0 24 24" fill="none" xmlns="http://www.w3.org/2000/svg">
<path d="M4.20601 16.5C3.82555 15.8421 3.5298 15.1387 3.32581 14.4066C3.76978 14.1808 4.14264 13.8366 4.40313 13.412C4.66362 12.9875 4.80159 12.4991 4.80178 12.001C4.80197 11.5029 4.66436 11.0145 4.40419 10.5897C4.14401 10.165 3.77141 9.82045 3.32761 9.59431C3.73444 8.12325 4.50906 6.77997 5.57851 5.69101C5.99619 5.96256 6.48086 6.11326 6.97889 6.12641C7.47691 6.13957 7.96886 6.01468 8.4003 5.76556C8.83174 5.51644 9.18584 5.15281 9.42342 4.71491C9.661 4.27701 9.77278 3.78191 9.74641 3.28441C11.2243 2.90247 12.7751 2.90309 14.2527 3.28621C14.2266 3.7837 14.3386 4.27872 14.5763 4.7165C14.8141 5.15428 15.1683 5.51774 15.5999 5.76667C16.0314 6.01559 16.5234 6.14028 17.0214 6.12693C17.5193 6.11358 18.0039 5.9627 18.4215 5.69101C18.9426 6.22201 19.4052 6.82591 19.794 7.50001C20.1837 8.17411 20.4753 8.87701 20.6742 9.59341C20.2302 9.81922 19.8574 10.1634 19.5969 10.588C19.3364 11.0126 19.1984 11.5009 19.1982 11.999C19.198 12.4971 19.3356 12.9856 19.5958 13.4103C19.856 13.8351 20.2286 14.1796 20.6724 14.4057C20.2656 15.8768 19.4909 17.2201 18.4215 18.309C18.0038 18.0375 17.5191 17.8868 17.0211 17.8736C16.5231 17.8605 16.0311 17.9853 15.5997 18.2345C15.1683 18.4836 14.8142 18.8472 14.5766 19.2851C14.339 19.723 14.2272 20.2181 14.2536 20.7156C12.7757 21.0976 11.2249 21.0969 9.74731 20.7138C9.77345 20.2163 9.66144 19.7213 9.42368 19.2835C9.18593 18.8457 8.83168 18.4823 8.40016 18.2334C7.96864 17.9844 7.47666 17.8597 6.97866 17.8731C6.48066 17.8864 5.99607 18.0373 5.57851 18.309C5.0466 17.7663 4.58544 17.1584 4.20601 16.5ZM9.30001 16.6764C10.2591 17.2296 10.9802 18.1173 11.325 19.1694C11.7741 19.2117 12.225 19.2126 12.6741 19.1703C13.0192 18.1181 13.7406 17.2303 14.7 16.6773C15.6587 16.1226 16.7885 15.9415 17.8725 16.1688C18.1335 15.8016 18.3585 15.4101 18.5457 15.0006C17.8072 14.1757 17.3992 13.1072 17.4 12C17.4 10.866 17.823 9.80671 18.5457 8.99941C18.3572 8.59005 18.1312 8.19898 17.8707 7.83121C16.7874 8.05829 15.6583 7.87754 14.7 7.32361C13.7409 6.77045 13.0198 5.8827 12.675 4.83061C12.2259 4.78831 11.775 4.78741 11.3259 4.82971C10.9808 5.88194 10.2594 6.76972 9.30001 7.32271C8.34131 7.87739 7.21153 8.05848 6.12751 7.83121C5.86701 8.19867 5.64162 8.58979 5.45431 8.99941C6.19282 9.82432 6.6008 10.8928 6.60001 12C6.60001 13.134 6.17701 14.1933 5.45431 15.0006C5.64283 15.41 5.86879 15.801 6.12931 16.1688C7.21265 15.9417 8.34169 16.1225 9.30001 16.6764ZM12 14.7C11.2839 14.7 10.5972 14.4155 10.0908 13.9092C9.58447 13.4029 9.30001 12.7161 9.30001 12C9.30001 11.2839 9.58447 10.5972 10.0908 10.0908C10.5972 9.58448 11.2839 9.30001 12 9.30001C12.7161 9.30001 13.4028 9.58448 13.9092 10.0908C14.4155 10.5972 14.7 11.2839 14.7 12C14.7 12.7161 14.4155 13.4029 13.9092 13.9092C13.4028 14.4155 12.7161 14.7 12 14.7ZM12 12.9C12.2387 12.9 12.4676 12.8052 12.6364 12.6364C12.8052 12.4676 12.9 12.2387 12.9 12C12.9 11.7613 12.8052 11.5324 12.6364 11.3636C12.4676 11.1948 12.2387 11.1 12 11.1C11.7613 11.1 11.5324 11.1948 11.3636 11.3636C11.1948 11.5324 11.1 11.7613 11.1 12C11.1 12.2387 11.1948 12.4676 11.3636 12.6364C11.5324 12.8052 11.7613 12.9 12 12.9Z" fill="currentColor"/>
</svg>
