<svg width="100%" height="100%" viewBox="0 0 24 24" fill="none" xmlns="http://www.w3.org/2000/svg">
<path d="M12.4843 4.23854C12.1945 4.03157 11.8053 4.03157 11.5155 4.23854L3.59888 9.8933L4.56761 11.2495L11.9999 5.94073L19.4322 11.2495L20.401 9.8933L12.4843 4.23854ZM18.3176 12.5719L12.4843 8.40521C12.1945 8.19824 11.8053 8.19824 11.5155 8.40521L5.68221 12.5719C5.46322 12.7283 5.33324 12.9808 5.33324 13.25V18.6666C5.33324 19.1269 5.70634 19.5 6.16658 19.5H17.8332C18.2935 19.5 18.6665 19.1269 18.6665 18.6666V13.25C18.6665 12.9808 18.5366 12.7283 18.3176 12.5719ZM6.99991 17.8333V13.6788L11.9999 10.1074L16.9999 13.6788V17.8333H6.99991Z" fill="currentColor"/>
</svg>
