<svg width="44" height="44" viewBox="0 0 44 44" fill="none" xmlns="http://www.w3.org/2000/svg">
<rect width="44" height="44" rx="12" fill="#F7F7F7"/>
<path d="M22 30.3334C20.8611 30.3334 19.7847 30.1147 18.7708 29.6772C17.7569 29.2397 16.8715 28.6424 16.1145 27.8855C15.3576 27.1286 14.7604 26.2431 14.3229 25.2292C13.8854 24.2154 13.6666 23.139 13.6666 22.0001C13.6666 20.8473 13.8854 19.7674 14.3229 18.7605C14.7604 17.7536 15.3576 16.8716 16.1145 16.1147C16.8715 15.3577 17.7569 14.7605 18.7708 14.323C19.7847 13.8855 20.8611 13.6667 22 13.6667C23.1527 13.6667 24.2326 13.8855 25.2395 14.323C26.2465 14.7605 27.1284 15.3577 27.8854 16.1147C28.6423 16.8716 29.2395 17.7536 29.677 18.7605C30.1145 19.7674 30.3333 20.8473 30.3333 22.0001C30.3333 23.139 30.1145 24.2154 29.677 25.2292C29.2395 26.2431 28.6423 27.1286 27.8854 27.8855C27.1284 28.6424 26.2465 29.2397 25.2395 29.6772C24.2326 30.1147 23.1527 30.3334 22 30.3334ZM22 28.6251C22.3611 28.1251 22.6736 27.6042 22.9375 27.0626C23.2013 26.5209 23.4166 25.9445 23.5833 25.3334H20.4166C20.5833 25.9445 20.7986 26.5209 21.0625 27.0626C21.3263 27.6042 21.6388 28.1251 22 28.6251ZM19.8333 28.2917C19.5833 27.8334 19.3645 27.3577 19.177 26.8647C18.9895 26.3716 18.8333 25.8612 18.7083 25.3334H16.25C16.6527 26.0279 17.1562 26.632 17.7604 27.1459C18.3645 27.6598 19.0555 28.0417 19.8333 28.2917ZM24.1666 28.2917C24.9444 28.0417 25.6354 27.6598 26.2395 27.1459C26.8437 26.632 27.3472 26.0279 27.75 25.3334H25.2916C25.1666 25.8612 25.0104 26.3716 24.8229 26.8647C24.6354 27.3577 24.4166 27.8334 24.1666 28.2917ZM15.5416 23.6667H18.375C18.3333 23.389 18.302 23.1147 18.2812 22.8438C18.2604 22.573 18.25 22.2917 18.25 22.0001C18.25 21.7084 18.2604 21.4272 18.2812 21.1563C18.302 20.8855 18.3333 20.6112 18.375 20.3334H15.5416C15.4722 20.6112 15.4201 20.8855 15.3854 21.1563C15.3507 21.4272 15.3333 21.7084 15.3333 22.0001C15.3333 22.2917 15.3507 22.573 15.3854 22.8438C15.4201 23.1147 15.4722 23.389 15.5416 23.6667ZM20.0416 23.6667H23.9583C24 23.389 24.0312 23.1147 24.052 22.8438C24.0729 22.573 24.0833 22.2917 24.0833 22.0001C24.0833 21.7084 24.0729 21.4272 24.052 21.1563C24.0312 20.8855 24 20.6112 23.9583 20.3334H20.0416C20 20.6112 19.9687 20.8855 19.9479 21.1563C19.927 21.4272 19.9166 21.7084 19.9166 22.0001C19.9166 22.2917 19.927 22.573 19.9479 22.8438C19.9687 23.1147 20 23.389 20.0416 23.6667ZM25.625 23.6667H28.4583C28.5277 23.389 28.5798 23.1147 28.6145 22.8438C28.6493 22.573 28.6666 22.2917 28.6666 22.0001C28.6666 21.7084 28.6493 21.4272 28.6145 21.1563C28.5798 20.8855 28.5277 20.6112 28.4583 20.3334H25.625C25.6666 20.6112 25.6979 20.8855 25.7187 21.1563C25.7395 21.4272 25.75 21.7084 25.75 22.0001C25.75 22.2917 25.7395 22.573 25.7187 22.8438C25.6979 23.1147 25.6666 23.389 25.625 23.6667ZM25.2916 18.6667H27.75C27.3472 17.9723 26.8437 17.3681 26.2395 16.8542C25.6354 16.3404 24.9444 15.9584 24.1666 15.7084C24.4166 16.1667 24.6354 16.6424 24.8229 17.1355C25.0104 17.6286 25.1666 18.139 25.2916 18.6667ZM20.4166 18.6667H23.5833C23.4166 18.0556 23.2013 17.4792 22.9375 16.9376C22.6736 16.3959 22.3611 15.8751 22 15.3751C21.6388 15.8751 21.3263 16.3959 21.0625 16.9376C20.7986 17.4792 20.5833 18.0556 20.4166 18.6667ZM16.25 18.6667H18.7083C18.8333 18.139 18.9895 17.6286 19.177 17.1355C19.3645 16.6424 19.5833 16.1667 19.8333 15.7084C19.0555 15.9584 18.3645 16.3404 17.7604 16.8542C17.1562 17.3681 16.6527 17.9723 16.25 18.6667Z" fill="#5C5C5C"/>
</svg>
