<svg width="100%" height="100%" viewBox="0 0 44 44" fill="none" xmlns="http://www.w3.org/2000/svg">
<rect width="100%" height="100%" rx="12" fill="#F7F7F7"/>
<path d="M16.1667 29.5C15.7083 29.5 15.316 29.3368 14.9896 29.0104C14.6632 28.684 14.5 28.2917 14.5 27.8333V16.1667C14.5 15.7083 14.6632 15.316 14.9896 14.9896C15.316 14.6632 15.7083 14.5 16.1667 14.5H27.8333C28.2917 14.5 28.684 14.6632 29.0104 14.9896C29.3368 15.316 29.5 15.7083 29.5 16.1667V27.8333C29.5 28.2917 29.3368 28.684 29.0104 29.0104C28.684 29.3368 28.2917 29.5 27.8333 29.5H16.1667ZM17 26.1667H27L23.875 22L21.375 25.3333L19.5 22.8333L17 26.1667Z" fill="#5C5C5C"/>
</svg>
