<svg width="100%" height="100%" viewBox="0 0 40 40" fill="none" xmlns="http://www.w3.org/2000/svg">
<rect width="100%" height="100%" rx="12" fill="#F7F7F7"/>
<path d="M20 13.3334C19.1246 13.3334 18.2577 13.5058 17.4488 13.8408C16.64 14.1759 15.9051 14.6669 15.286 15.286C14.0358 16.5362 13.3334 18.2319 13.3334 20C13.3334 21.7682 14.0358 23.4638 15.286 24.7141C15.9051 25.3331 16.64 25.8242 17.4488 26.1592C18.2577 26.4943 19.1246 26.6667 20 26.6667C21.7682 26.6667 23.4638 25.9643 24.7141 24.7141C25.9643 23.4638 26.6667 21.7682 26.6667 20C26.6667 19.1246 26.4943 18.2577 26.1592 17.4488C25.8242 16.64 25.3331 15.9051 24.7141 15.286C24.095 14.6669 23.3601 14.1759 22.5513 13.8408C21.7424 13.5058 20.8755 13.3334 20 13.3334ZM22.8 22.8L19.3334 20.6667V16.6667H20.3334V20.1334L23.3334 21.9334L22.8 22.8Z" fill="#5C5C5C"/>
</svg>
